<?xml version="1.0" standalone="no"?>
<!DOCTYPE svg PUBLIC "-//W3C//DTD SVG 20010904//EN"
 "http://www.w3.org/TR/2001/REC-SVG-20010904/DTD/svg10.dtd">
<svg version="1.0" xmlns="http://www.w3.org/2000/svg"
 width="1564.000000pt" height="1567.000000pt" viewBox="0 0 1564.000000 1567.000000"
 preserveAspectRatio="xMidYMid meet">

<g transform="translate(0.000000,1567.000000) scale(0.100000,-0.100000)"
fill="#000000" stroke="none">
<path d="M13668 15203 l-28 -4 0 -4400 0 -4399 -238 0 c-172 0 -241 -3 -250
-12 -9 -9 -12 -75 -12 -235 l0 -223 -197 0 c-220 0 -264 -7 -281 -46 -8 -16
-12 -98 -12 -239 l0 -215 -5614 0 -5614 0 -11 -31 c-14 -42 -15 -483 -1 -510
11 -19 85 -19 5639 -19 5440 0 5628 1 5644 18 15 16 17 48 17 245 l0 227 234
0 c200 0 237 2 250 16 14 13 16 50 16 250 l0 234 234 0 c205 0 235 2 247 17
11 12 15 72 19 247 l5 231 220 5 220 5 3 4409 c1 3068 -1 4413 -8 4420 -11 11
-426 18 -482 9z"/>
<path d="M2882 12768 c-9 -9 -12 -678 -12 -2950 l0 -2938 23 -5 c12 -3 1886
-4 4165 -3 3670 3 4144 5 4152 18 6 9 9 1102 7 2936 -2 2458 -4 2924 -16 2937
-12 16 -315 17 -4160 17 -3212 0 -4150 -3 -4159 -12z m4896 -2203 c1 -121 0
-230 -3 -242 l-5 -23 -718 0 c-545 0 -721 -3 -730 -12 -19 -19 -17 -450 3
-488 l16 -30 202 0 c197 1 203 1 242 25 l40 25 1200 0 c921 0 1204 -3 1213
-12 9 -9 12 -186 12 -734 0 -649 -2 -722 -16 -728 -9 -3 -553 -6 -1210 -6
-1039 0 -1199 2 -1231 15 -28 12 -82 15 -249 15 l-214 0 0 475 0 475 -496 0
c-364 0 -501 3 -517 12 -15 8 -91 12 -237 12 l-215 1 -3 713 -2 712 217 0
c124 0 224 5 233 10 10 6 460 9 1240 7 l1225 -2 3 -220z"/>
<path d="M15110 3935 l0 -1945 -232 0 c-129 0 -240 -5 -248 -10 -12 -8 -16
-49 -18 -245 l-3 -235 -37 -1 c-20 -1 -121 -2 -224 -3 -139 -1 -190 -4 -200
-14 -10 -10 -13 -66 -13 -235 l0 -222 -238 -5 c-197 -4 -239 -8 -247 -20 -5
-8 -10 -119 -10 -247 l0 -233 -6600 0 -6600 0 -10 -26 c-6 -14 -10 -131 -10
-260 l0 -234 6620 0 6620 0 0 223 c0 122 3 232 6 245 l6 22 233 0 c181 0 235
3 244 13 7 9 12 94 13 243 l3 229 232 5 c127 3 235 9 240 13 4 5 10 113 13
240 l5 232 229 3 c149 1 234 6 243 13 10 9 13 63 13 244 l0 233 23 6 c12 3
122 6 245 6 l222 0 0 1955 0 1955 -260 0 -260 0 0 -1945z"/>
<path d="M7306 2955 l-26 -24 0 -229 c0 -201 2 -231 17 -243 13 -12 262 -15
1482 -21 806 -4 1569 -10 1695 -13 152 -4 233 -2 240 5 7 7 247 10 732 10 644
0 724 2 738 16 14 13 16 50 16 247 -1 212 -2 234 -19 255 l-19 22 -2415 0
-2414 0 -27 -25z"/>
<path d="M1918 2703 c-2 -255 -1 -250 -11 -259 -12 -13 -8 -462 4 -470 6 -3
219 -8 474 -10 391 -3 465 -2 475 10 8 11 10 78 5 258 -3 134 -8 343 -11 466
l-5 222 -465 0 -464 0 -2 -217z"/>
</g>
</svg>
